<svg width="23" height="28" viewBox="0 0 23 28" fill="none" xmlns="http://www.w3.org/2000/svg">
<path d="M18.8911 14.9296C18.8607 11.5555 21.6546 9.91394 21.7823 9.83751C20.2 7.53119 17.7475 7.21607 16.8857 7.19095C14.8259 6.97424 12.8279 8.42315 11.7786 8.42315C10.7084 8.42315 9.0926 7.21188 7.35114 7.24748C5.11018 7.28203 3.01373 8.57914 1.86392 10.5934C-0.508982 14.7004 1.26075 20.7358 3.53417 24.0555C4.67141 25.6824 6.00028 27.4966 7.73964 27.4328C9.44131 27.3637 10.0769 26.3492 12.1305 26.3492C14.1651 26.3492 14.762 27.4328 16.5359 27.392C18.3622 27.3637 19.512 25.7588 20.6095 24.1183C21.9237 22.2559 22.4515 20.4196 22.4724 20.3254C22.4305 20.3107 18.9267 18.9728 18.8911 14.9296ZM15.5401 5.00711C16.4553 3.86285 17.0815 2.3061 16.9077 0.72633C15.583 0.784956 13.9264 1.64237 12.9724 2.76151C12.1284 3.74769 11.3744 5.3641 11.5692 6.8842C13.0572 6.99517 14.5851 6.13357 15.5401 5.00711Z" fill="white"/>
</svg>
