<svg width="20" height="20" viewBox="0 0 20 20" fill="none" xmlns="http://www.w3.org/2000/svg">
<path d="M11.682 11.682L11.6819 11.682L11.6775 11.6865C11.6775 11.6865 11.6774 11.6865 11.6774 11.6866C9.63414 13.7249 6.32534 13.7234 4.28395 11.682C2.24104 9.63908 2.24104 6.32687 4.28395 4.28395C6.32686 2.24104 9.63907 2.24104 11.682 4.28395C13.7234 6.32536 13.7249 9.63422 11.6865 11.6775L11.682 11.682ZM2.90384 13.0621C5.47495 15.6332 9.50999 15.8477 12.3255 13.7057L17.5341 18.9142C17.9152 19.2953 18.5331 19.2953 18.9142 18.9142C19.2953 18.5331 19.2953 17.9152 18.9142 17.5341L13.7057 12.3255C15.8476 9.50999 15.6332 5.47495 13.0621 2.90384C10.257 0.0987191 5.70897 0.0987186 2.90384 2.90384C0.0987192 5.70897 0.0987192 10.257 2.90384 13.0621Z" fill="#9419AC" stroke="#9419AC" stroke-width="0.4" stroke-linecap="round"/>
</svg>
